<svg width="27" height="27" viewBox="0 0 27 27" fill="none" xmlns="http://www.w3.org/2000/svg">
<path d="M2.61914 6.16673L10.125 10.4196C12.8922 11.9875 14.0613 11.9875 16.8285 10.4196L24.3344 6.16673" stroke="white" stroke-width="2.17152" stroke-linejoin="round"/>
<path d="M2.63626 14.2835C2.70724 17.612 2.74273 19.2761 3.97087 20.509C5.199 21.7418 6.90826 21.7847 10.3268 21.8706C12.4337 21.9235 14.5198 21.9235 16.6268 21.8706C20.0453 21.7847 21.7545 21.7418 22.9827 20.509C24.2108 19.2761 24.2463 17.612 24.3172 14.2835C24.3401 13.2132 24.3401 12.1494 24.3172 11.0792C24.2463 7.75072 24.2108 6.0865 22.9827 4.85369C21.7545 3.62088 20.0453 3.57794 16.6268 3.49205C14.5198 3.43911 12.4337 3.43911 10.3268 3.49204C6.90826 3.57792 5.199 3.62086 3.97086 4.85368C2.74272 6.08649 2.70724 7.75071 2.63625 11.0792C2.61343 12.1494 2.61344 13.2132 2.63626 14.2835Z" stroke="white" stroke-width="2.17152" stroke-linejoin="round"/>
</svg>
