<svg width="27" height="27" viewBox="0 0 27 27" fill="none" xmlns="http://www.w3.org/2000/svg">
<path d="M16.1814 16.9736H16.1911M10.7623 16.9736H10.7721" stroke="white" stroke-width="2.89536" stroke-linecap="round" stroke-linejoin="round"/>
<path d="M5.08143 20.6052C5.32559 22.4187 6.82768 23.8395 8.65559 23.9235C10.1937 23.9942 11.7561 24.0311 13.4767 24.0311C15.1973 24.0311 16.7598 23.9942 18.2978 23.9235C20.1258 23.8395 21.6279 22.4187 21.8721 20.6052C22.0315 19.4217 22.1628 18.2088 22.1628 16.9737C22.1628 15.7385 22.0315 14.5256 21.8721 13.3421C21.6279 11.5286 20.1258 10.1078 18.2978 10.0238C16.7598 9.95309 15.1973 9.91621 13.4767 9.91621C11.7561 9.91621 10.1937 9.95309 8.65559 10.0238C6.82768 10.1078 5.32559 11.5286 5.08143 13.3421C4.92208 14.5256 4.79065 15.7385 4.79065 16.9737C4.79065 18.2088 4.92208 19.4217 5.08143 20.6052Z" stroke="white" stroke-width="2.17152"/>
<path d="M8.59082 9.9162V7.20179C8.59082 4.50337 10.7783 2.31586 13.4767 2.31586C16.1752 2.31586 18.3627 4.50337 18.3627 7.20179V9.9162" stroke="white" stroke-width="2.17152" stroke-linecap="round" stroke-linejoin="round"/>
</svg>
